<?xml version="1.0" encoding="utf-8" ?>
<svg xmlns="http://www.w3.org/2000/svg" xmlns:ev="http://www.w3.org/2001/xml-events"
  xmlns:xlink="http://www.w3.org/1999/xlink" baseProfile="full" height="59px" version="1.1" viewBox="0 0 59 59"
  width="59px">
  <defs />
  <g id="x000000_r0_g0_b0_a1.0">
    <path
      d="M 49,22 49,23 50,23 50,24 50,25 51,25 51,26 51,28 49,28 49,27 48,27 48,26 46,26 46,25 44,25 44,24 38,24 38,22 39,22 39,20 37,20 31,20 25,20 25,22 27,22 27,24 28,24 28,25 29,25 29,28 28,28 28,30 27,30 25,30 25,29 23,29 23,30 21,30 21,29 20,29 20,28 19,28 19,27 18,27 18,26 18,25 17,25 17,24 20,24 20,22 22,22 22,21 21,21 21,20 20,20 20,19 18,19 18,20 18,21 17,21 17,20 16,20 16,17 14,17 12,17 12,18 11,18 11,20 5,20 5,18 6,18 6,16 7,16 7,17 8,17 8,16 9,16 9,15 10,15 12,15 12,14 14,14 14,13 16,13 17,13 17,12 18,12 19,12 26,12 26,10 27,10 27,8 28,8 28,4 29,4 29,1 31,1 31,2 30,2 30,6 30,12 31,12 31,14 24,14 24,15 23,15 23,14 22,14 22,15 21,15 21,16 22,16 22,17 33,17 34,17 34,18 35,18 36,18 36,19 37,19 38,19 38,18 39,18 40,18 40,19 41,19 42,19 42,20 43,20 44,20 44,21 45,21 45,20 44,20 44,19 44,18 46,18 46,19 47,19 47,20 48,20 48,21 49,21 z M 21,26 21,25 20,25 20,26 z M 20,16 20,17 21,17 21,16 z M 22,23 21,23 21,24 22,24 z M 22,19 21,19 21,20 22,20 z M 47,21 46,21 46,22 47,22 47,23 48,23 48,22 47,22 z"
      fill="#000000" fill-opacity="1.0" id="x000000_r0_g0_b0_a1.0_shape1" />
    <path
      d="M 21,43 20,43 20,45 25,45 25,46 26,46 26,49 24,49 24,51 19,51 19,48 18,48 18,47 17,47 17,48 16,48 16,49 15,49 15,47 14,47 14,48 13,48 13,49 12,49 12,50 12,52 13,52 13,53 12,53 12,54 10,54 10,53 9,53 9,52 9,51 10,51 10,50 10,49 11,49 11,48 12,48 12,47 11,47 11,46 12,46 12,45 12,44 13,44 13,43 14,43 14,41 15,41 15,40 16,40 16,39 16,34 17,34 18,34 18,35 19,35 19,37 23,37 23,39 22,39 22,40 21,40 z"
      fill="#000000" fill-opacity="1.0" id="x000000_r0_g0_b0_a1.0_shape2" />
    <path d="M 37,16 37,15 39,15 41,15 41,16 43,16 43,17 44,17 44,18 43,18 42,18 42,17 41,17 38,17 38,16 z"
      fill="#000000" fill-opacity="1.0" id="x000000_r0_g0_b0_a1.0_shape3" />
    <path d="M 29,31 31,31 31,32 32,32 32,33 30,33 30,32 28,32 28,31 z" fill="#000000" fill-opacity="1.0"
      id="x000000_r0_g0_b0_a1.0_shape4" />
    <path d="M 51,34 51,32 52,32 52,34 52,35 51,35 51,36 50,36 50,34 z" fill="#000000" fill-opacity="1.0"
      id="x000000_r0_g0_b0_a1.0_shape5" />
    <path d="M 28,34 29,34 29,33 30,33 30,35 29,35 29,36 28,36 28,35 z" fill="#000000" fill-opacity="1.0"
      id="x000000_r0_g0_b0_a1.0_shape6" />
    <path d="M 34,34 34,33 35,33 36,33 36,34 37,34 37,35 35,35 35,34 z" fill="#000000" fill-opacity="1.0"
      id="x000000_r0_g0_b0_a1.0_shape7" />
    <path d="M 52,29 52,31 51,31 50,31 50,30 51,30 51,29 z" fill="#000000" fill-opacity="1.0"
      id="x000000_r0_g0_b0_a1.0_shape8" />
    <path d="M 25,35 25,34 26,34 27,34 27,35 26,35 z" fill="#000000" fill-opacity="1.0"
      id="x000000_r0_g0_b0_a1.0_shape9" />
    <path d="M 8,16 7,16 7,15 8,15 z" fill="#000000" fill-opacity="1.0" id="x000000_r0_g0_b0_a1.0_shape10" />
    <path d="M 19,21 19,20 20,20 20,21 z" fill="#000000" fill-opacity="1.0" id="x000000_r0_g0_b0_a1.0_shape11" />
    <path d="M 26,32 26,33 25,33 25,32 z" fill="#000000" fill-opacity="1.0" id="x000000_r0_g0_b0_a1.0_shape12" />
    <path d="M 27,32 28,32 28,33 27,33 z" fill="#000000" fill-opacity="1.0" id="x000000_r0_g0_b0_a1.0_shape13" />
    <path d="M 33,32 34,32 34,33 33,33 z" fill="#000000" fill-opacity="1.0" id="x000000_r0_g0_b0_a1.0_shape14" />
    <path d="M 25,36 24,36 24,35 25,35 z" fill="#000000" fill-opacity="1.0" id="x000000_r0_g0_b0_a1.0_shape15" />
    <path d="M 38,35 38,36 37,36 37,35 z" fill="#000000" fill-opacity="1.0" id="x000000_r0_g0_b0_a1.0_shape16" />
  </g>
  <g id="xffffff_r216_g216_b216_a1.0">
    <path
      d="M 15,19 14,19 14,20 15,20 16,20 16,21 17,21 18,21 18,22 19,22 19,24 18,24 16,24 11,24 11,23 8,23 8,22 6,22 6,21 5,21 5,20 8,20 10,20 10,21 11,21 11,20 13,20 13,19 12,19 12,18 13,18 13,17 15,17 15,18 16,18 16,19 z"
      fill="#ffffff" fill-opacity="1.0" id="xffffff_r216_g216_b216_a1.0_shape1" />
    <path d="M 38,23 37,23 37,24 33,24 33,25 29,25 29,24 28,24 28,23 27,23 27,22 26,22 26,21 30,21 30,20 37,20 38,20 z"
      fill="#ffffff" fill-opacity="1.0" id="xffffff_r216_g216_b216_a1.0_shape2" />
    <path
      d="M 28,36 28,37 27,37 27,39 26,39 26,41 25,41 25,42 24,42 24,43 24,44 21,44 21,42 22,42 22,40 23,40 23,38 24,38 24,37 25,37 25,36 27,36 z"
      fill="#ffffff" fill-opacity="1.0" id="xffffff_r216_g216_b216_a1.0_shape3" />
    <path
      d="M 17,49 17,48 18,48 18,49 19,49 19,50 18,50 18,51 17,51 17,52 16,52 16,53 15,53 15,54 14,54 14,55 12,55 12,53 13,53 13,52 14,52 14,51 12,51 12,50 13,50 13,48 15,48 15,49 z"
      fill="#ffffff" fill-opacity="1.0" id="xffffff_r216_g216_b216_a1.0_shape4" />
    <path d="M 33,16 33,15 32,15 32,14 31,14 31,13 35,13 35,14 36,14 37,14 37,18 35,18 35,17 34,17 34,16 z"
      fill="#ffffff" fill-opacity="1.0" id="xffffff_r216_g216_b216_a1.0_shape5" />
    <path d="M 21,37 20,37 20,36 20,35 21,35 21,34 22,34 23,34 23,35 23,36 23,37 22,37 z" fill="#ffffff"
      fill-opacity="1.0" id="xffffff_r216_g216_b216_a1.0_shape6" />
    <path d="M 48,33 48,32 49,32 49,29 50,29 50,33 z" fill="#ffffff" fill-opacity="1.0"
      id="xffffff_r216_g216_b216_a1.0_shape7" />
    <path d="M 33,33 33,34 32,34 32,33 z" fill="#ffffff" fill-opacity="1.0" id="xffffff_r216_g216_b216_a1.0_shape8" />
    <path d="M 34,35 35,35 35,36 34,36 z" fill="#ffffff" fill-opacity="1.0" id="xffffff_r216_g216_b216_a1.0_shape9" />
  </g>
  <g id="x000000_r80_g80_b80_a1.0">
    <path d="M 22,17 22,16 21,16 21,15 22,15 22,14 23,14 23,15 24,15 24,14 32,14 32,15 33,15 33,16 34,16 34,17 z"
      fill="#000000" fill-opacity="1.0" id="x000000_r80_g80_b80_a1.0_shape1" />
    <path
      d="M 26,33 26,32 27,32 27,33 28,33 28,32 30,32 30,33 29,33 29,34 28,34 28,35 28,36 25,36 25,35 27,35 27,34 25,34 25,35 24,35 24,36 25,36 25,37 24,37 24,38 23,38 23,37 23,34 23,33 z"
      fill="#000000" fill-opacity="1.0" id="x000000_r80_g80_b80_a1.0_shape2" />
    <path d="M 40,19 40,18 38,18 38,19 36,19 36,18 37,18 37,16 38,16 38,17 42,17 42,18 44,18 44,20 42,20 42,19 z"
      fill="#000000" fill-opacity="1.0" id="x000000_r80_g80_b80_a1.0_shape3" />
    <path
      d="M 20,20 19,20 19,21 20,21 20,20 21,20 21,21 22,21 22,22 21,22 20,22 20,23 20,24 19,24 19,23 19,22 18,22 18,21 18,20 18,19 19,19 20,19 z"
      fill="#000000" fill-opacity="1.0" id="x000000_r80_g80_b80_a1.0_shape4" />
    <path d="M 30,20 30,21 26,21 26,22 25,22 25,21 25,20 z" fill="#000000" fill-opacity="1.0"
      id="x000000_r80_g80_b80_a1.0_shape5" />
    <path d="M 24,44 24,45 20,45 20,43 21,43 21,44 z" fill="#000000" fill-opacity="1.0"
      id="x000000_r80_g80_b80_a1.0_shape6" />
    <path d="M 12,18 12,19 13,19 13,20 11,20 11,19 11,18 z" fill="#000000" fill-opacity="1.0"
      id="x000000_r80_g80_b80_a1.0_shape7" />
    <path d="M 49,28 51,28 51,29 51,30 50,30 50,29 49,29 z" fill="#000000" fill-opacity="1.0"
      id="x000000_r80_g80_b80_a1.0_shape8" />
    <path d="M 51,33 50,33 50,31 52,31 52,32 51,32 z" fill="#000000" fill-opacity="1.0"
      id="x000000_r80_g80_b80_a1.0_shape9" />
    <path d="M 28,8 27,8 27,7 27,6 28,6 28,7 z" fill="#000000" fill-opacity="1.0"
      id="x000000_r80_g80_b80_a1.0_shape10" />
    <path d="M 16,19 16,20 15,20 14,20 14,19 15,19 z" fill="#000000" fill-opacity="1.0"
      id="x000000_r80_g80_b80_a1.0_shape11" />
    <path d="M 39,22 38,22 38,21 38,20 39,20 39,21 z" fill="#000000" fill-opacity="1.0"
      id="x000000_r80_g80_b80_a1.0_shape12" />
    <path d="M 21,42 21,40 22,40 22,42 z" fill="#000000" fill-opacity="1.0" id="x000000_r80_g80_b80_a1.0_shape13" />
    <path d="M 13,52 12,52 12,51 13,51 14,51 14,52 z" fill="#000000" fill-opacity="1.0"
      id="x000000_r80_g80_b80_a1.0_shape14" />
    <path d="M 11,54 12,54 12,55 11,55 10,55 10,54 z" fill="#000000" fill-opacity="1.0"
      id="x000000_r80_g80_b80_a1.0_shape15" />
    <path d="M 28,4 28,3 29,3 29,4 z" fill="#000000" fill-opacity="1.0" id="x000000_r80_g80_b80_a1.0_shape16" />
    <path d="M 27,9 27,10 26,10 26,9 z" fill="#000000" fill-opacity="1.0" id="x000000_r80_g80_b80_a1.0_shape17" />
    <path d="M 25,11 26,11 26,12 25,12 z" fill="#000000" fill-opacity="1.0" id="x000000_r80_g80_b80_a1.0_shape18" />
    <path d="M 11,15 11,14 12,14 12,15 z" fill="#000000" fill-opacity="1.0" id="x000000_r80_g80_b80_a1.0_shape19" />
    <path d="M 37,15 37,14 38,14 38,15 z" fill="#000000" fill-opacity="1.0" id="x000000_r80_g80_b80_a1.0_shape20" />
    <path d="M 8,15 9,15 9,16 8,16 z" fill="#000000" fill-opacity="1.0" id="x000000_r80_g80_b80_a1.0_shape21" />
    <path d="M 7,16 8,16 8,17 7,17 z" fill="#000000" fill-opacity="1.0" id="x000000_r80_g80_b80_a1.0_shape22" />
    <path d="M 21,16 21,17 20,17 20,16 z" fill="#000000" fill-opacity="1.0" id="x000000_r80_g80_b80_a1.0_shape23" />
    <path d="M 12,17 13,17 13,18 12,18 z" fill="#000000" fill-opacity="1.0" id="x000000_r80_g80_b80_a1.0_shape24" />
    <path d="M 16,18 15,18 15,17 16,17 z" fill="#000000" fill-opacity="1.0" id="x000000_r80_g80_b80_a1.0_shape25" />
    <path d="M 34,18 34,17 35,17 35,18 z" fill="#000000" fill-opacity="1.0" id="x000000_r80_g80_b80_a1.0_shape26" />
    <path d="M 4,20 4,19 5,19 5,20 z" fill="#000000" fill-opacity="1.0" id="x000000_r80_g80_b80_a1.0_shape27" />
    <path d="M 22,19 22,20 21,20 21,19 z" fill="#000000" fill-opacity="1.0" id="x000000_r80_g80_b80_a1.0_shape28" />
    <path d="M 10,21 10,20 11,20 11,21 z" fill="#000000" fill-opacity="1.0" id="x000000_r80_g80_b80_a1.0_shape29" />
    <path d="M 17,20 17,21 16,21 16,20 z" fill="#000000" fill-opacity="1.0" id="x000000_r80_g80_b80_a1.0_shape30" />
    <path d="M 45,21 44,21 44,20 45,20 z" fill="#000000" fill-opacity="1.0" id="x000000_r80_g80_b80_a1.0_shape31" />
    <path d="M 47,21 47,22 46,22 46,21 z" fill="#000000" fill-opacity="1.0" id="x000000_r80_g80_b80_a1.0_shape32" />
    <path d="M 48,23 47,23 47,22 48,22 z" fill="#000000" fill-opacity="1.0" id="x000000_r80_g80_b80_a1.0_shape33" />
    <path d="M 21,24 21,23 22,23 22,24 z" fill="#000000" fill-opacity="1.0" id="x000000_r80_g80_b80_a1.0_shape34" />
    <path d="M 28,23 28,24 27,24 27,23 z" fill="#000000" fill-opacity="1.0" id="x000000_r80_g80_b80_a1.0_shape35" />
    <path d="M 38,24 37,24 37,23 38,23 z" fill="#000000" fill-opacity="1.0" id="x000000_r80_g80_b80_a1.0_shape36" />
    <path d="M 28,24 29,24 29,25 28,25 z" fill="#000000" fill-opacity="1.0" id="x000000_r80_g80_b80_a1.0_shape37" />
    <path d="M 20,25 21,25 21,26 20,26 z" fill="#000000" fill-opacity="1.0" id="x000000_r80_g80_b80_a1.0_shape38" />
    <path d="M 23,30 23,29 24,29 24,30 z" fill="#000000" fill-opacity="1.0" id="x000000_r80_g80_b80_a1.0_shape39" />
    <path d="M 33,32 33,33 32,33 32,32 z" fill="#000000" fill-opacity="1.0" id="x000000_r80_g80_b80_a1.0_shape40" />
    <path d="M 34,33 34,32 35,32 35,33 z" fill="#000000" fill-opacity="1.0" id="x000000_r80_g80_b80_a1.0_shape41" />
    <path d="M 17,33 17,34 16,34 16,33 z" fill="#000000" fill-opacity="1.0" id="x000000_r80_g80_b80_a1.0_shape42" />
    <path d="M 31,33 31,34 30,34 30,33 z" fill="#000000" fill-opacity="1.0" id="x000000_r80_g80_b80_a1.0_shape43" />
    <path d="M 33,34 33,33 34,33 34,34 z" fill="#000000" fill-opacity="1.0" id="x000000_r80_g80_b80_a1.0_shape44" />
    <path d="M 34,35 34,34 35,34 35,35 z" fill="#000000" fill-opacity="1.0" id="x000000_r80_g80_b80_a1.0_shape45" />
    <path d="M 19,36 20,36 20,37 19,37 z" fill="#000000" fill-opacity="1.0" id="x000000_r80_g80_b80_a1.0_shape46" />
    <path d="M 22,39 23,39 23,40 22,40 z" fill="#000000" fill-opacity="1.0" id="x000000_r80_g80_b80_a1.0_shape47" />
    <path d="M 12,47 12,48 11,48 11,47 z" fill="#000000" fill-opacity="1.0" id="x000000_r80_g80_b80_a1.0_shape48" />
    <path d="M 14,48 14,47 15,47 15,48 z" fill="#000000" fill-opacity="1.0" id="x000000_r80_g80_b80_a1.0_shape49" />
    <path d="M 17,47 18,47 18,48 17,48 z" fill="#000000" fill-opacity="1.0" id="x000000_r80_g80_b80_a1.0_shape50" />
    <path d="M 16,49 16,48 17,48 17,49 z" fill="#000000" fill-opacity="1.0" id="x000000_r80_g80_b80_a1.0_shape51" />
    <path d="M 18,48 19,48 19,49 18,49 z" fill="#000000" fill-opacity="1.0" id="x000000_r80_g80_b80_a1.0_shape52" />
    <path d="M 13,49 13,50 12,50 12,49 z" fill="#000000" fill-opacity="1.0" id="x000000_r80_g80_b80_a1.0_shape53" />
    <path d="M 24,50 24,49 25,49 25,50 z" fill="#000000" fill-opacity="1.0" id="x000000_r80_g80_b80_a1.0_shape54" />
    <path d="M 18,50 19,50 19,51 18,51 z" fill="#000000" fill-opacity="1.0" id="x000000_r80_g80_b80_a1.0_shape55" />
  </g>
</svg>